HIERARCHY
ROOT Hips
{
	OFFSET 0.000000 35.082581 0.000000
	CHANNELS 6 Xposition Yposition Zposition Xrotation Yrotation Zrotation 
	JOINT Spine
	{
		OFFSET 0.000000 6.876099 0.125700
		CHANNELS 3 Xrotation Yrotation Zrotation
		JOINT Spine1
		{
			OFFSET 0.000000 5.730043 0.104720
			CHANNELS 3 Xrotation Yrotation Zrotation
			JOINT Spine1_split
			{
				OFFSET 0.000000 5.730043 0.104720
				CHANNELS 3 Xrotation Yrotation Zrotation
				JOINT Spine2
				{
					OFFSET 0.000000 5.730043 0.104720
					CHANNELS 3 Xrotation Yrotation Zrotation
					JOINT Neck
					{
						OFFSET 0.000000 10.314075 0.188496
						CHANNELS 3 Xrotation Yrotation Zrotation
						JOINT Head
						{
							OFFSET 0.000000 7.643700 -2.377400
							CHANNELS 3 Xrotation Yrotation Zrotation
							JOINT HeadTop_End
							{
								OFFSET 0.000000 43.788605 -13.619600
								CHANNELS 3 Xrotation Yrotation Zrotation
								End Site
								{
									OFFSET 0.000000 0.000000 0.000000
								}
							}
						}
					}
					JOINT LeftShoulder
					{
						OFFSET 2.196100 4.412489 0.087492
						CHANNELS 3 Xrotation Yrotation Zrotation
						JOINT LeftShoulder_split
						{
							OFFSET 2.196100 4.412489 0.087492
							CHANNELS 3 Xrotation Yrotation Zrotation
							JOINT LeftArm
							{
								OFFSET 8.771219 -2.981674 -0.026999
								CHANNELS 3 Xrotation Yrotation Zrotation
								JOINT LeftForeArm
								{
									OFFSET 8.512804 0.000000 -0.000000
									CHANNELS 3 Xrotation Yrotation Zrotation
									JOINT LeftHand
									{
										OFFSET 18.484802 0.000000 -0.000000
										CHANNELS 3 Xrotation Yrotation Zrotation
										JOINT LeftHandThumb1
										{
											OFFSET 2.499420 -1.158070 2.653252
											CHANNELS 3 Xrotation Yrotation Zrotation
											JOINT LeftHandThumb2
											{
												OFFSET 2.370079 -1.368366 1.368366
												CHANNELS 3 Xrotation Yrotation Zrotation
												JOINT LeftHandThumb3
												{
													OFFSET 2.676727 -1.545410 1.545409
													CHANNELS 3 Xrotation Yrotation Zrotation
													JOINT LeftHandThumb4
													{
														OFFSET 1.692226 -0.977005 0.977007
														CHANNELS 3 Xrotation Yrotation Zrotation
														End Site
														{
															OFFSET 0.000000 0.000000 0.000000
														}
													}
												}
											}
										}
										JOINT LeftHandIndex1
										{
											OFFSET 7.924831 -0.457527 2.345128
											CHANNELS 3 Xrotation Yrotation Zrotation
											JOINT LeftHandIndex2
											{
												OFFSET 3.643303 0.000000 0.000000
												CHANNELS 3 Xrotation Yrotation Zrotation
												JOINT LeftHandIndex3
												{
													OFFSET 3.810799 0.000000 0.000000
													CHANNELS 3 Xrotation Yrotation Zrotation
													JOINT LeftHandIndex4
													{
														OFFSET 2.403702 0.000000 0.000000
														CHANNELS 3 Xrotation Yrotation Zrotation
														End Site
														{
															OFFSET 0.000000 0.000000 0.000000
														}
													}
												}
											}
										}
										JOINT LeftHandMiddle1
										{
											OFFSET 8.563995 0.000000 -0.000000
											CHANNELS 3 Xrotation Yrotation Zrotation
											JOINT LeftHandMiddle2
											{
												OFFSET 3.861618 0.000000 0.000000
												CHANNELS 3 Xrotation Yrotation Zrotation
												JOINT LeftHandMiddle3
												{
													OFFSET 3.701603 0.000000 0.000000
													CHANNELS 3 Xrotation Yrotation Zrotation
													JOINT LeftHandMiddle4
													{
														OFFSET 2.322544 0.000000 0.000000
														CHANNELS 3 Xrotation Yrotation Zrotation
														End Site
														{
															OFFSET 0.000000 0.000000 0.000000
														}
													}
												}
											}
										}
										JOINT LeftHandRing1
										{
											OFFSET 8.426460 -0.424637 -3.286992
											CHANNELS 3 Xrotation Yrotation Zrotation
											JOINT LeftHandRing2
											{
												OFFSET 3.126408 0.000000 0.000000
												CHANNELS 3 Xrotation Yrotation Zrotation
												JOINT LeftHandRing3
												{
													OFFSET 3.085026 0.000000 0.000000
													CHANNELS 3 Xrotation Yrotation Zrotation
													JOINT LeftHandRing4
													{
														OFFSET 1.644005 0.000000 0.000000
														CHANNELS 3 Xrotation Yrotation Zrotation
														End Site
														{
															OFFSET 0.000000 0.000000 0.000000
														}
													}
												}
											}
										}
									}
								}
							}
						}
					}
					JOINT RightShoulder
					{
						OFFSET -2.196100 4.412496 0.070690
						CHANNELS 3 Xrotation Yrotation Zrotation
						JOINT RightShoulder_split
						{
							OFFSET -2.196100 4.412496 0.070690
							CHANNELS 3 Xrotation Yrotation Zrotation
							JOINT RightArm
							{
								OFFSET -8.771282 -2.981682 -0.094208
								CHANNELS 3 Xrotation Yrotation Zrotation
								JOINT RightForeArm
								{
									OFFSET -8.494598 0.000000 0.000000
									CHANNELS 3 Xrotation Yrotation Zrotation
									JOINT RightHand
									{
										OFFSET -18.483803 0.000000 0.000001
										CHANNELS 3 Xrotation Yrotation Zrotation
										JOINT RightHandThumb1
										{
											OFFSET -2.527351 -1.008072 2.575253
											CHANNELS 3 Xrotation Yrotation Zrotation
											JOINT RightHandThumb2
											{
												OFFSET -2.321518 -1.340328 1.340329
												CHANNELS 3 Xrotation Yrotation Zrotation
												JOINT RightHandThumb3
												{
													OFFSET -2.657753 -1.534454 1.534455
													CHANNELS 3 Xrotation Yrotation Zrotation
													JOINT RightHandThumb4
													{
														OFFSET -1.807510 -1.043568 1.043567
														CHANNELS 3 Xrotation Yrotation Zrotation
														End Site
														{
															OFFSET 0.000000 0.000000 0.000000
														}
													}
												}
											}
										}
										JOINT RightHandIndex1
										{
											OFFSET -8.811420 0.015533 2.887987
											CHANNELS 3 Xrotation Yrotation Zrotation
											JOINT RightHandIndex2
											{
												OFFSET -3.537502 0.000000 0.000000
												CHANNELS 3 Xrotation Yrotation Zrotation
												JOINT RightHandIndex3
												{
													OFFSET -3.356201 0.000000 0.000000
													CHANNELS 3 Xrotation Yrotation Zrotation
													JOINT RightHandIndex4
													{
														OFFSET -1.933098 0.000000 0.000000
														CHANNELS 3 Xrotation Yrotation Zrotation
														End Site
														{
															OFFSET 0.000000 0.000000 0.000000
														}
													}
												}
											}
										}
										JOINT RightHandMiddle1
										{
											OFFSET -8.178135 0.000000 0.000000
											CHANNELS 3 Xrotation Yrotation Zrotation
											JOINT RightHandMiddle2
											{
												OFFSET -3.901302 0.000000 0.000000
												CHANNELS 3 Xrotation Yrotation Zrotation
												JOINT RightHandMiddle3
												{
													OFFSET -3.909599 0.000000 0.000000
													CHANNELS 3 Xrotation Yrotation Zrotation
													JOINT RightHandMiddle4
													{
														OFFSET -2.376003 0.000000 0.000000
														CHANNELS 3 Xrotation Yrotation Zrotation
														End Site
														{
															OFFSET 0.000000 0.000000 0.000000
														}
													}
												}
											}
										}
										JOINT RightHandRing1
										{
											OFFSET -7.559013 0.014137 -2.865403
											CHANNELS 3 Xrotation Yrotation Zrotation
											JOINT RightHandRing2
											{
												OFFSET -3.449306 0.000000 0.000000
												CHANNELS 3 Xrotation Yrotation Zrotation
												JOINT RightHandRing3
												{
													OFFSET -3.362106 0.000000 0.000000
													CHANNELS 3 Xrotation Yrotation Zrotation
													JOINT RightHandRing4
													{
														OFFSET -2.076401 0.000000 0.000000
														CHANNELS 3 Xrotation Yrotation Zrotation
														End Site
														{
															OFFSET 0.000000 0.000000 0.000000
														}
													}
												}
											}
										}
									}
								}
							}
						}
					}
				}
			}
		}
	}
	JOINT LeftUpLeg
	{
		OFFSET 10.205400 -3.823500 0.155100
		CHANNELS 3 Xrotation Yrotation Zrotation
		JOINT LeftLeg
		{
			OFFSET 0.708757 -12.982077 0.567790
			CHANNELS 3 Xrotation Yrotation Zrotation
			JOINT LeftFoot
			{
				OFFSET -0.708756 -10.717838 -2.184338
				CHANNELS 3 Xrotation Yrotation Zrotation
				JOINT LeftToeBase
				{
					OFFSET 0.108149 -7.191104 7.560241
					CHANNELS 3 Xrotation Yrotation Zrotation
					JOINT LeftToe_End
					{
						OFFSET 0.070230 0.081724 4.490308
						CHANNELS 3 Xrotation Yrotation Zrotation
						End Site
						{
							OFFSET 0.000000 0.000000 0.000000
						}
					}
				}
			}
		}
	}
	JOINT RightUpLeg
	{
		OFFSET -10.205400 -3.823500 0.005500
		CHANNELS 3 Xrotation Yrotation Zrotation
		JOINT RightLeg
		{
			OFFSET -0.708756 -12.982134 0.610632
			CHANNELS 3 Xrotation Yrotation Zrotation
			JOINT RightFoot
			{
				OFFSET 0.708754 -10.717769 -1.945823
				CHANNELS 3 Xrotation Yrotation Zrotation
				JOINT RightToeBase
				{
					OFFSET -0.108140 -7.191069 7.372968
					CHANNELS 3 Xrotation Yrotation Zrotation
					JOINT RightToe_End
					{
						OFFSET -0.070227 0.081735 4.479403
						CHANNELS 3 Xrotation Yrotation Zrotation
						End Site
						{
							OFFSET 0.000000 0.000000 0.000000
						}
					}
				}
			}
		}
	}
}
MOTION
Frames: 4
Frame Time: 0.016667
-0.268904 28.598206 -0.034607 3.000818 -58.172236 6.374447 11.189915 0.063110 -2.592204 8.434594 0.027697 -5.592315 0.000000 0.000000 0.000000 8.457050 0.027860 -5.591869 -21.555705 25.063297 12.062585 -0.293969 25.465858 -3.208981 0.000000 -0.000000 0.000000 -6.221668 -11.503855 -4.023802 0.000000 0.000000 0.000000 -23.062132 9.568718 -36.639648 0.046161 -43.169435 -0.011139 22.743724 -5.685704 15.979222 -1.060997 -7.956221 8.492262 2.373406 19.986122 -2.038329 0.808206 1.237716 2.631729 -0.000000 -0.000001 -0.000002 13.340883 -1.006687 10.682273 -0.163446 0.317208 -31.105607 -0.145514 0.315614 -32.256207 0.000002 0.000000 -0.000001 8.500038 -0.329630 -0.915275 0.231513 0.661159 -29.901848 0.448912 0.208758 -44.357069 -0.000001 -0.000000 0.000000 6.121106 3.156121 -16.211128 0.046239 0.321020 -30.125471 0.404051 0.818964 -42.140679 0.000001 -0.000000 -0.000000 -5.488237 10.658280 2.466534 0.000000 0.000000 0.000000 -41.473793 -26.755639 30.079088 24.955242 111.863090 -23.308244 -8.702506 12.422947 -9.801963 0.262713 10.061720 -10.891926 1.381141 -17.410707 3.018930 3.345877 -13.256894 -8.254638 -0.000002 -0.000003 0.000001 19.443602 11.174432 -13.340182 -0.109212 -0.315754 18.035642 -0.078880 -0.277409 23.256668 -0.000000 -0.000000 -0.000001 4.320476 2.436961 -4.811717 0.344840 -0.463976 26.890308 0.460722 0.158675 39.044838 -0.000002 -0.000001 0.000001 -7.011538 -10.695711 5.718775 0.110922 -0.095442 26.155844 0.448155 -0.485633 33.265118 0.000001 -0.000001 -0.000000 -37.006948 4.712935 33.451070 48.227109 -12.869290 -11.599575 -12.630379 -0.308050 -14.434044 -0.327089 1.238532 0.835601 0.000000 0.000000 0.000000 -31.641329 -2.217086 -36.234427 60.434921 9.478411 -7.241484 -30.093175 -4.063234 28.286083 -0.317990 -0.997942 -0.837104 0.000000 -0.000000 -0.000000 
-0.265698 28.594315 -0.039773 3.025437 -58.146268 6.357815 11.153088 0.079435 -2.549525 8.361919 0.067342 -5.504503 0.000000 0.000000 0.000000 8.384397 0.067483 -5.504035 -20.955340 25.198835 11.976193 -0.203332 25.677155 -3.208822 0.000000 0.000000 0.000001 -5.897241 -11.434707 -4.094829 0.000000 0.000000 0.000000 -23.105799 9.541877 -36.578166 -0.430861 -43.369113 0.211660 22.768261 -5.683134 16.086398 -0.879770 -7.813323 8.278611 2.373400 19.986112 -2.038335 0.842232 1.254082 2.640825 -0.000003 -0.000002 0.000003 13.334317 -1.036154 10.359177 -0.182388 0.317284 -31.248317 -0.144556 0.315411 -32.522711 0.000001 -0.000000 -0.000000 8.499501 -0.328310 -1.009027 0.251441 0.631768 -29.985978 0.430625 0.189321 -44.502528 0.000002 -0.000001 0.000000 6.121501 3.146049 -16.098242 0.080329 0.300939 -30.077179 0.404079 0.798831 -42.144593 -0.000000 0.000000 0.000001 -5.087705 10.716909 2.386506 0.000000 0.000000 0.000000 -41.616708 -26.593135 29.801420 27.048565 111.876190 -25.310823 -8.426415 11.265933 -10.149975 0.161846 10.414147 -10.760814 1.389863 -17.409823 3.034348 3.358069 -13.306409 -8.277545 0.000003 -0.000005 -0.000000 19.555194 10.955349 -14.215801 -0.109614 -0.315377 17.606177 -0.080551 -0.277539 22.816080 0.000001 -0.000003 0.000001 4.375304 2.490924 -5.767850 0.342247 -0.462196 26.411498 0.457894 0.150049 38.570184 -0.000000 0.000001 -0.000002 -7.223197 -10.390292 4.582351 0.110963 -0.091263 25.535033 0.441820 -0.484957 32.636587 0.000002 0.000000 0.000001 -37.108807 4.679628 33.501590 48.278625 -12.929732 -11.586081 -12.613131 -0.304948 -14.430057 -0.326670 1.211368 0.835584 0.000000 -0.000006 -0.000000 -31.632525 -2.218115 -36.194798 60.434484 9.463937 -7.218057 -30.107412 -4.083055 28.329494 -0.318023 -0.997923 -0.837154 0.000000 0.000001 -0.000000 
-0.261631 28.586960 -0.044708 3.062710 -58.130647 6.357266 11.180762 0.093990 -2.515898 8.418545 0.098052 -5.435015 0.000000 0.000000 0.000000 8.441000 0.098155 -5.434538 -20.687880 25.289860 11.929345 -0.113997 25.894268 -3.222224 -0.000000 0.000000 0.000001 -5.908044 -11.406750 -4.124960 0.000000 0.000000 0.000000 -23.202755 9.567589 -36.508372 -0.784459 -43.550078 0.142536 22.848566 -5.652444 16.178181 -0.879648 -7.742591 8.328699 2.373402 19.986122 -2.038330 0.833682 1.225348 2.626673 -0.000000 0.000002 -0.000000 13.268570 -0.549100 10.431556 -0.182239 0.317234 -31.198948 -0.144593 0.315408 -32.508012 0.000001 0.000000 0.000001 8.506221 0.092384 -0.917206 0.251015 0.632014 -29.949696 0.430414 0.189454 -44.430237 0.000000 -0.000001 0.000000 6.117620 3.143184 -16.039680 0.080057 0.300759 -30.030108 0.403794 0.799153 -42.114731 -0.000000 0.000001 0.000001 -4.944344 10.745126 2.290171 0.000000 0.000000 0.000000 -41.728139 -26.359947 29.303752 31.240151 112.174642 -29.235662 -7.457857 10.204591 -10.911859 0.253636 10.146819 -10.866894 1.389864 -17.409833 3.034328 3.345231 -13.233913 -8.246509 0.000004 -0.000003 0.000002 19.555682 10.849986 -14.310307 -0.109768 -0.315219 17.427308 -0.081289 -0.277597 22.619777 -0.000000 0.000001 0.000000 4.395307 2.480614 -5.884560 0.341312 -0.463245 26.238725 0.456660 0.147808 38.361016 -0.000001 -0.000000 0.000001 -7.253362 -10.295832 4.470741 0.111003 -0.090335 25.398057 0.440205 -0.484793 32.474691 0.000003 0.000000 0.000000 -37.212971 4.640533 33.551904 48.356527 -12.975081 -11.574409 -12.616591 -0.301581 -14.432707 -0.326672 1.211380 0.835577 0.000000 0.000003 -0.000000 -31.658514 -2.192483 -36.156330 60.476291 9.457414 -7.213975 -30.119833 -4.109449 28.389379 -0.317936 -0.997937 -0.837153 0.000000 0.000000 -0.000000 
-0.256923 28.580364 -0.049281 3.105692 -58.124083 6.365472 11.204959 0.108529 -2.484032 8.467456 0.128421 -5.368927 0.000000 0.000000 0.000000 8.489935 0.128538 -5.368456 -20.398452 25.378647 11.886845 -0.024570 26.120529 -3.255902 -0.000001 -0.000000 -0.000000 -5.914317 -11.396592 -4.145972 0.000000 0.000000 0.000000 -23.347118 9.645240 -36.446764 -1.115181 -43.763430 0.039129 22.975541 -5.590313 16.230217 -0.833043 -7.696168 8.471571 2.373400 19.986117 -2.038330 0.820909 1.183476 2.606149 -0.000002 -0.000002 0.000001 13.148568 -0.152175 10.582371 -0.181320 0.317260 -31.121969 -0.144844 0.315447 -32.439591 0.000001 0.000001 0.000001 8.510354 0.379053 -0.790054 0.249862 0.632821 -29.887883 0.429172 0.189898 -44.307639 0.000000 0.000001 -0.000001 6.301390 3.763340 -15.938176 0.079964 0.300706 -29.987474 0.403282 0.799521 -42.063075 -0.000000 -0.000001 -0.000002 -4.707627 10.766319 2.133741 0.000000 0.000000 0.000000 -41.787231 -26.098312 28.599073 29.847937 111.261152 -27.947339 -9.059257 9.227796 -12.053770 0.390455 9.767117 -10.996384 1.388980 -17.406063 3.036272 3.326571 -13.128599 -8.201354 -0.000003 0.000000 -0.000000 19.537107 10.750106 -14.301146 -0.109897 -0.315079 17.255148 -0.082022 -0.277631 22.425137 -0.000000 -0.000001 0.000001 4.410901 2.459051 -5.885789 0.340506 -0.463567 26.084959 0.455438 0.146803 38.156210 0.000000 0.000000 0.000000 -7.077103 -10.207427 4.534578 0.110977 -0.089782 25.313724 0.439059 -0.484643 32.361433 -0.000002 0.000001 0.000001 -37.307125 4.604397 33.594217 48.429719 -13.012437 -11.560601 -12.624627 -0.295586 -14.437971 -0.326670 1.211423 0.835570 0.000000 0.000001 -0.000000 -31.693085 -2.154509 -36.121261 60.515162 9.456589 -7.209563 -30.120492 -4.138087 28.456890 -0.318055 -0.997819 -0.837133 0.000000 0.000001 -0.000000 
